<svg version="1" xmlns="http://www.w3.org/2000/svg" width="1096" height="1096" viewBox="0 0 822.000000 822.000000"><path d="M296 196.6c-32.2 5.7-55.5 22.7-68.4 49.7-7.2 15.1-8.1 19.7-8.1 39.2.1 15.9.3 17.5 2.9 25.5 4.5 13.5 9.2 21.9 18.5 32.9 9.9 11.7 28.2 22.9 44.6 27.3 11.4 3 32.6 3 44-.1 33-8.9 58.1-35.1 65-68.2 1.9-9 1.9-26.8 0-35.6-7.2-34.2-31.8-59.8-66-68.8-5.8-1.6-27.4-2.8-32.5-1.9zM503 373.5c-.8.2-4.9.9-9 1.5-29.4 4.8-59.4 23.4-78.5 48.8-46.9 62.5-26.2 152.9 43.2 188.4 19.2 9.9 36.3 14 57.8 14.1 21.4 0 36.9-3.4 55.3-12.3 14-6.8 23.9-13.8 34.7-24.5 25.5-25.4 38.7-59.3 37.1-95-1.5-33.6-13.6-60.8-37.5-84.5-18.2-18.1-37.8-28.9-62.8-34.5-6.2-1.4-36.5-2.9-40.3-2zM234 439c-24.9 3.4-45.3 20.3-52.6 43.4-7.4 23.4-1.6 47.4 15.6 64.6 25.5 25.5 66.2 24.9 91.2-1.3 10.8-11.3 17-26.9 17.1-43.2.1-11.3-1.4-17.7-6.5-28.5-3.3-6.8-5.7-10.1-12.2-16.6-6.5-6.5-9.8-8.9-16.6-12.2-12.2-5.8-24.3-7.9-36-6.2z"/></svg>