<svg xmlns="http://www.w3.org/2000/svg" viewBox="0 0 497.17 107.4"><defs><style>.cls-1{isolation:isolate;}</style></defs><title>Asset 1</title><g id="Layer_2" data-name="Layer 2"><g id="Layer_1-2" data-name="Layer 1"><g class="cls-1"><path d="M156.56,18.73h29c16.68,0,26.32,10.29,26.32,24.89S202,68.36,185.14,68.36h-13V92.17H156.56Zm26.07,37.18c8.89,0,13.23-5,13.23-12.29s-4.34-12.2-13.3-12.2H172.09V55.91Z"/><path d="M218.52,64.88c0-17,10.5-28.51,26.71-28.51,14.56,0,25.89,9.25,25.89,28v4.2H233.61v0c0,8.21,4.84,13.27,12.48,13.27,5.09,0,9-2.19,10.58-6.38l14.13.93c-2.16,10.22-11.34,16.85-25,16.85C228.88,93.24,218.52,82.34,218.52,64.88Zm38.22-5.81c0-6.56-4.63-11.3-11.26-11.3a11.64,11.64,0,0,0-11.87,11.3Z"/><path d="M278.86,64.88c0-17,10.5-28.51,26.71-28.51,14.56,0,25.89,9.25,25.89,28v4.2H294v0c0,8.21,4.84,13.27,12.48,13.27,5.09,0,9-2.19,10.58-6.38l14.13.93c-2.15,10.22-11.33,16.85-25,16.85C289.22,93.24,278.86,82.34,278.86,64.88Zm38.22-5.81c0-6.56-4.62-11.3-11.26-11.3A11.64,11.64,0,0,0,294,59.07Z"/><path d="M341.42,37.09h14.81V46.7h.57c2-6.81,7.07-10.4,13.24-10.4a22.4,22.4,0,0,1,4.8.54V50.39a26,26,0,0,0-6.45-.82c-6.74,0-11.69,4.66-11.69,11.44V92.17H341.42Z"/><path d="M382.12,22.24a8,8,0,0,1,8.24-7.71c4.56,0,8.29,3.48,8.29,7.71a8.28,8.28,0,0,1-16.53,0Zm.57,14.85H398V92.17H382.69Z"/><path d="M442,53.66c-.76-3.55-3.91-6.46-9.22-6.46-4.73,0-8.46,2.15-8.43,5.45,0,2.65,1.87,4.41,7,5.52l10,2c10.69,2.19,15.89,7,15.92,14.92C457.2,86,447,93.24,432.71,93.24c-14.6,0-23.56-6.49-25-17l15-.79c.93,4.48,4.55,6.81,10,6.81s8.9-2.33,9-5.59c-.07-2.76-2.26-4.52-7.07-5.49l-9.53-1.9c-10.76-2.15-16-7.49-15.92-15.74,0-10.61,9.25-17.14,23.34-17.14,13.91,0,22.09,6.28,23.45,16.43Z"/><path d="M496.17,48.56H485.8V75.24c0,4.23,2.12,5.38,5.17,5.38a21.21,21.21,0,0,0,3.8-.5l2.4,11.37a29.69,29.69,0,0,1-8.28,1.43c-11.08.47-18.43-4.88-18.36-15.67V48.56H463V37.09h7.53V23.89H485.8v13.2h10.37Z"/></g><circle id="Ellipse_1" data-name="Ellipse 1" cx="32.2" cy="22.1" r="22.1"/><circle id="Ellipse_2" data-name="Ellipse 2" cx="84.6" cy="75.8" r="31.6"/><circle id="Ellipse_3" data-name="Ellipse 3" cx="15.8" cy="76.4" r="15.8"/></g></g></svg>